<svg id="Layer_1" data-name="Layer 1" xmlns="http://www.w3.org/2000/svg" viewBox="0 0 754 781.25"><defs><style>.cls-1{fill:#4c0010;}.cls-2{fill:#11264c;}.cls-3{fill:#72001b;}.cls-4{fill:#ffc5b3;}.cls-5{fill:#221c1d;}.cls-6{fill:#00aa89;}</style></defs><title>Untitled-1</title><path class="cls-1" d="M767,660s7-2,10-2,5,3,6,5,19,59,22,69,10,39,15,49,13,32,16,42,3,17,9,33,8,16,14,37,6,26,12,44,8,39,10,46,4,17,4,17H754c1,0-27-53-30-68s-12-38-12-47-9-152,8-174S767,660,767,660Z" transform="translate(-131 -220.75)"/><path class="cls-1" d="M206.55,661c-17.53,22.47-23.31,34.8-25.15,42-.7,2.75-2.48,10-4.38,17.49-2.65,10.47-2.75,10.6-3.4,14.19-2,11.34-3.27,25.73-3.27,51.32,0,11-16.93,112-16.93,112s-2.58,11.5-5.24,24.63c-2.6,12.81-4.44,26.34-5.8,34.38A251.2,251.2,0,0,1,131,1000H259.76c.85-6.39,2-15.71,3.19-27,4.2-40.47,6.3-60.71,4.26-79-2.82-25.3-9.49-36.38-11.71-64-.24-3-.75-10.15-2.13-20-2.08-14.85-4.17-21.64-5.32-29-2.3-14.76,1.11-19.38,3.19-41,2.86-29.69-1.06-47-8.51-80-2-9-4.1-16.36-9.58-18C222.8,638.9,208.31,658.57,206.55,661Z" transform="translate(-131 -220.75)"/><path class="cls-2" d="M405,572l-51,19-13,83v49l-12,51-5,82,14,53,18,41,8,50H632L605,890s-9-60-8-66-3-68-7-79-6-36-8-51,1-46,2-48,30-44,30-44l12-14-79-16Z" transform="translate(-131 -220.75)"/><path class="cls-3" d="M377.21,582.34S310,601,289,613s-60,22-64,28,2,55,0,69,7,99,13,119c12.08,40.26,12.55,44.56,19,82a551.68,551.68,0,0,1,8,89H384c-3.15-10.8-7.61-26.17-13-45-.57-2-1-4.08-2-7-3.85-11.46-8.07-15.33-12-25-1.75-4.32-2.5-7.54-4-14-4.88-21-6.47-46.44-7-57a326.13,326.13,0,0,1,11-80l4-50-7-71Z" transform="translate(-131 -220.75)"/><path class="cls-3" d="M624,578s89,34,125,59,33,14,29,30-30,94-29,110-14,50-13,68-1,81-1,99,5,56,5,56l-134,2c-4.51-32.51-9.37-58.87-13-77-7-35-11.69-50.82-18-85.08C569.84,812,566.78,789,565,774c-3-15.35-5.77-31.71-8-49-1.75-13.51-3.05-26.53-4-39a193.51,193.51,0,0,1,35-78Z" transform="translate(-131 -220.75)"/><path class="cls-1" d="M412,543.33S394,552,391,560s-12,13-36-8-17-19-14,15-6,40-6,64,26,75,20,100-10,68-11,82-2,78,12,116,18,39.5,22.5,71.25l8.83.08S378,950,362,927s-12-95-10-117,18-71,11-101-12-90,30-116c0,0,3.33-12.12,9.16-18.06S417,561,417,561,425,540.67,412,543.33Z" transform="translate(-131 -220.75)"/><path class="cls-1" d="M565.13,543.08A49.2,49.2,0,0,1,590,561c10,14,39,13,44,8s4,5-6,23-75,38-70,108,14,78,29,178,21.5,122.25,21.5,122.25h-6S588,920,584,900s-9-50-11-59-13-81-15-87-7-39-7-47-3-27,1-39,10-26,10-31,21.51-36,26.25-45S556,568,556,568Z" transform="translate(-131 -220.75)"/><path class="cls-4" d="M412,518v20c0,7,0,18-1,23s1,4-8,13,2,30,22,38,48,14,84,8,52-10,64-15,33-23-3-45a45.77,45.77,0,0,1-5-20c0-11-1-24,0-33S412,518,412,518Z" transform="translate(-131 -220.75)"/><path class="cls-5" d="M586,273c-4-5-2-4-5-6s-4-5-6-6l-6-3c-2-1-2-3-3-3s-1,2-7-1-4-2-7-6-4-4-4-5-2-2-1-1,1,3,1,4,1,0-1-1,0-1-2-2-2-2-3-3a14.39,14.39,0,0,1-2-3s-3,1-3,0,0,0-2-1-1,0-2-1a4.94,4.94,0,0,0-3-1,1,1,0,0,0-1-1c-1,0,0,0-2-1s-1,0-2-1,0,0-2-1-2-1-3-1h-1a4.94,4.94,0,0,1-3-1c-1-1,0,0-2-1s-3-1-5-2-1,0-3-1-2-1-4-1h-6a15.91,15.91,0,0,1-9-1c-5-2-10-1-11-1h-5c-3,0-5,1-6,1h-6c-2,0-3-1-5,0s-4,3-7,3-4,1-6,2-1,2-3,2-7,3-8,4-5,3-7,4-10,7-12,8a7.81,7.81,0,0,0-4,4,7.69,7.69,0,0,1-2,3c-1,1,0,1-3,2s-7,5-8,6-4,4-4,5,0,0,3-2,4,1,2,2-2,3-5,4a25.67,25.67,0,0,0-5,2c-2,1-3,4-3,4l-2,1,4-2c2-1,4-2,3,0l-1,2c-1,2-1,1-2,3a18.66,18.66,0,0,1-3,4s-1-1-2,2-2,4-2,5,0,1-1,2l-3,3v2l3-3a10.34,10.34,0,0,0-1,4c0,2-3,7-3,7v5s3-4,2,0-2,5-2,5v3s1-1,1,2-1,2,0,4,2,1,2,2v2c0,2,1,1,1,4s-1,5,0,6,1,9,1,10,1,5,0,5,0,8,0,10-1,6,0,8a25.44,25.44,0,0,1,2,7,3.67,3.67,0,0,0,1,3c1,1,1,2,2,4s3,4,3,5v5c0,2-1,3,0,4s0,3,0,4-1,4-1,5v10c0,1,1,5,1,6a10.87,10.87,0,0,0,1,5c1,2,1,5,2,8s1,7,1,9,1,6,1,7,1,3,1,6-1,8,0,11,0,7,1,9,1,6,2,7,1,4,1,5,0,3,1,4,2,6,3,8a25.44,25.44,0,0,1,2,7c0,1,2,3,3,4s7,6,7,8,1,3,2,5,2,2,3,4,0,3,3,5,6,5,7,5,3,3,6,4,2,1,5,3,5,2,7,4,3,2,5,3a21.86,21.86,0,0,1,5,3,7.64,7.64,0,0,0,5,2c2,0,12,1,14,1s8,1,9,0,8-2,10-2h6c1,0,0-1,3-1s6-1,7-1,4-2,5-2,4-2,4-2a39.33,39.33,0,0,0,6-2c2-1,3-4,5-4a9,9,0,0,0,5-1c2-1,5-2,5-3s3-2,5-4,2-1,3-3,3-3,4-6a48.75,48.75,0,0,1,3-7c1-2,3-2,3-4s1-2,2-3a7.69,7.69,0,0,0,2-3c1-2,4-2,4-4s1-2,2-4,3-3,3-5-1-4,0-6,0-3,1-6,1-2,1-4,1-5,1-6-1-2,0-4,0-2,1-3,1-6,1-7,1-4,1-5v-3a22.69,22.69,0,0,1,1-4s-1-5,0-5,1-3,1-3l1-3v-2l1-3a15.77,15.77,0,0,1,1-4c1-3,1-1,1-4s-1-3,0-5,0-2,0-5v-6c0-2-1-3-1-5v-6c0-2,1-2,1-3s1-4,1-5,2-2,2-3,2-2,2-2,1,1,1,0,0,0,1-1,0-4,1-5a3.67,3.67,0,0,0,1-3v-2s2-2,2-4-1-4,0-5,1-1,1-2,1-5,1-7-1-3,0-3,1-2,1-2a4.94,4.94,0,0,1,1-3c1-1-1-4,0-5s-1-2,0-4,1-5,1-7v-6a43.31,43.31,0,0,1,1-5,10.34,10.34,0,0,0,1-4c0-2,1-3,1-5s-1-3-1-5v-6c0-1-1-6-2-7s-1-1-3-4-2-4-4-5a13.8,13.8,0,0,1-4-3c-1-1-2-3-3-3a3.49,3.49,0,0,1-2-1s3-2,4-2,0-1,1-3S586,273,586,273Z" transform="translate(-131 -220.75)"/><path class="cls-4" d="M550,295c-2,1-11,2-12,2s-7-2-9-2-1-1-6-2-9-3-10-3h-8c-1,0-7,2-7,1s-2-1-5-1-5,0-7,1-4,1-6,2a79.3,79.3,0,0,1-9,4c-3,1-2,0-5,1s-5,4-8,4-4,2-6,3-5,3-7,3h-6c-2,0-3,1-7,0a32.24,32.24,0,0,1-6-2s-9-2-11-3-5,0-5,0-5,5-8,15-3,12-3,18,0,10-1,14-1,7-3,11-4,6-4,7-2,3-3,14,0,12,0,17,1,10,0,13,0,10,0,12,2,7,3,10,1,5,2,8,5,16,5,19,5,11,5,12,5,6,8,10,3,6,4,9a94.39,94.39,0,0,1,3,9c1,4,5,11,5,13s4,4,6,6,3,4,12,5,17-9,18-10c.64-.64,1.28-.87,1.66-1.48A4.26,4.26,0,0,0,461,512c.23-1.56.33-2.36,0-3-.24-.46-.48-.51-1-1a6.43,6.43,0,0,1-2-4,5.13,5.13,0,0,1,1-3c.87-1.36,2-1.93,4-3,1.26-.66,3.74-2,6-2h8c3.21,0,3.21-.23,4,0a5.55,5.55,0,0,1,3,2,5.79,5.79,0,0,1,1,3,7.47,7.47,0,0,1-1,5c-1.21,1.79-2.52,1.54-3,3-.42,1.26.22,2.51,1,4a19.3,19.3,0,0,0,4,5c1,1,6,5,9,5h12a52.74,52.74,0,0,0,12-3,32.4,32.4,0,0,0,9-8c2-3,9-33,21-40s21-21,23-31,4-26,4-26V399l-2-15s-1-9-2-11l-3-6s-4-7-5-9-1-7-2-11-2-7-2-8c0-11.71-.08-17.34-2-27A40.75,40.75,0,0,0,550,295Z" transform="translate(-131 -220.75)"/><path class="cls-5" d="M449,459c-10.21,6.55-17.06,5.24-19,11-.47,1.39-2.43,6.57,0,9a7.58,7.58,0,0,1,2,4c0,1-1,3,1-1s6-5,7-6c4.33-4.33,10.66-6,16-9,7.34-4.12,8.32-5.15,11-5,3.47.2,4.38,2.08,9,2,3.37-.06,5.05-.09,7-1,1.05-.49,2.37-1.32,4-1a4.5,4.5,0,0,1,2,1c2.72,2.17,7.82.41,13,3,2,1,8,3,10,4s6,3,8,5,2,1,3,4,0,4,0,5,1-2,2-5a13.87,13.87,0,0,0,0-9,10.69,10.69,0,0,0-3-5,21.86,21.86,0,0,0-5-3c-2-1-5-2-7-3s-6-4-5-2,0,1-2,0a7.69,7.69,0,0,1-3-2c-1-1-2,0-5-2-1.8-1.2-3.23-1.79-5-3-3.34-2.29-2.67-2.48-4-3a10.36,10.36,0,0,0-7,0,9.38,9.38,0,0,1-3,1c-.45,0-.76,0-3,0h-1a4.76,4.76,0,0,1-2,0,4.93,4.93,0,0,1-2-1C465.92,445.5,456,454.53,449,459Z" transform="translate(-131 -220.75)"/><path class="cls-6" d="M249,1008" transform="translate(-131 -220.75)"/></svg>