<?xml version="1.0" encoding="UTF-8" standalone="no"?>
<!DOCTYPE svg PUBLIC "-//W3C//DTD SVG 1.1//EN" "http://www.w3.org/Graphics/SVG/1.1/DTD/svg11.dtd">
<svg version="1.1" xmlns="http://www.w3.org/2000/svg" xmlns:xlink="http://www.w3.org/1999/xlink" preserveAspectRatio="xMidYMid meet" viewBox="-1 31.532450256294368 101 35.936095902371875" width="97" height="31.94"><defs><path d="M95.87 40.38C96.35 40.98 96.68 41.72 96.84 42.59C96.95 43.17 97 44.02 97 45.13C97 45.85 96.99 49.46 96.97 55.96L92.36 55.96C92.36 49.4 92.36 45.75 92.36 45.02C92.36 44.37 92.26 43.83 92.05 43.41C91.65 42.61 90.91 42.21 89.84 42.21C88.6 42.21 87.75 42.73 87.27 43.76C87.03 44.31 86.91 44.96 86.91 45.73C86.91 46.41 86.91 49.82 86.91 55.96L82.38 55.96C82.38 49.82 82.38 46.41 82.38 45.73C82.38 44.71 82.28 43.97 82.07 43.51C81.69 42.68 80.95 42.26 79.85 42.26C78.57 42.26 77.71 42.68 77.26 43.51C77.02 43.98 76.9 44.68 76.9 45.62C76.9 46.31 76.9 49.76 76.9 55.96L72.34 55.96L72.34 38.81L76.71 38.81C76.71 40.31 76.71 41.15 76.71 41.31C77.27 40.42 77.8 39.78 78.29 39.41C79.16 38.73 80.29 38.4 81.68 38.4C82.99 38.4 84.05 38.69 84.86 39.27C85.51 39.8 86.01 40.49 86.34 41.33C86.93 40.32 87.66 39.58 88.54 39.11C89.46 38.64 90.49 38.4 91.63 38.4C92.38 38.4 93.13 38.54 93.86 38.84C94.6 39.13 95.27 39.65 95.87 40.38Z" id="d4yVKBU5R"></path><path d="M4.75 36.65L4.75 41.58L14.92 41.58L14.92 45.62L4.75 45.62L4.75 51.6L14.94 51.6L14.94 55.77L0 55.77L0 32.53L14.8 32.53L14.8 36.65L4.75 36.65Z" id="a1kK8DcBM4"></path><path d="M59.97 36.65L59.97 41.58L70.14 41.58L70.14 45.62L59.97 45.62L59.97 51.6L70.16 51.6L70.16 55.77L55.22 55.77L55.22 32.53L70.02 32.53L70.02 36.65L59.97 36.65Z" id="c3BdC0T7d"></path><path d="M16.62 38.14L21.62 38.14L26.48 50.82L31.14 38.14L35.92 38.14L28.97 55.67L25.57 64.47L20.7 64.47L24.05 56.08L16.62 38.14Z" id="a19qyKkPkd"></path><path d="M51.08 41.48C51.78 42.5 52.24 43.68 52.45 45.03C52.57 45.82 52.62 46.96 52.59 48.44C51.34 48.44 41.33 48.44 40.08 48.44C40.15 50.17 40.75 51.37 41.88 52.07C42.56 52.5 43.39 52.71 44.35 52.71C45.38 52.71 46.21 52.45 46.85 51.93C47.2 51.64 47.5 51.25 47.77 50.74C48.23 50.74 51.9 50.74 52.36 50.74C52.24 51.76 51.68 52.8 50.7 53.85C49.16 55.52 47 56.36 44.23 56.36C41.94 56.36 39.92 55.65 38.17 54.24C36.43 52.83 35.55 50.54 35.55 47.36C35.55 44.39 36.34 42.1 37.92 40.51C39.5 38.92 41.55 38.13 44.07 38.13C45.56 38.13 46.91 38.4 48.11 38.94C49.31 39.47 50.3 40.32 51.08 41.48ZM40.19 45.48C40.96 45.48 47.16 45.48 47.93 45.48C47.85 44.29 47.45 43.38 46.73 42.76C46.02 42.14 45.13 41.84 44.07 41.84C42.92 41.84 42.02 42.16 41.39 42.82C40.75 43.47 40.35 44.36 40.19 45.48Z" id="gIZ3zDsVz"></path></defs><g><g><use xlink:href="#d4yVKBU5R" opacity="1" fill="#75001b" fill-opacity="1"></use><g><use xlink:href="#d4yVKBU5R" opacity="1" fill-opacity="0" stroke="#000000" stroke-width="1" stroke-opacity="0"></use></g></g><g><use xlink:href="#a1kK8DcBM4" opacity="1" fill="#75001b" fill-opacity="1"></use><g><use xlink:href="#a1kK8DcBM4" opacity="1" fill-opacity="0" stroke="#000000" stroke-width="1" stroke-opacity="0"></use></g></g><g><use xlink:href="#c3BdC0T7d" opacity="1" fill="#75001b" fill-opacity="1"></use><g><use xlink:href="#c3BdC0T7d" opacity="1" fill-opacity="0" stroke="#000000" stroke-width="1" stroke-opacity="0"></use></g></g><g><use xlink:href="#a19qyKkPkd" opacity="1" fill="#75001b" fill-opacity="1"></use><g><use xlink:href="#a19qyKkPkd" opacity="1" fill-opacity="0" stroke="#000000" stroke-width="1" stroke-opacity="0"></use></g></g><g><use xlink:href="#gIZ3zDsVz" opacity="1" fill="#75001b" fill-opacity="1"></use><g><use xlink:href="#gIZ3zDsVz" opacity="1" fill-opacity="0" stroke="#000000" stroke-width="1" stroke-opacity="0"></use></g></g></g></svg>