<?xml version="1.0" encoding="UTF-8" standalone="no"?>
<!DOCTYPE svg PUBLIC "-//W3C//DTD SVG 1.1//EN" "http://www.w3.org/Graphics/SVG/1.1/DTD/svg11.dtd">
<svg version="1.1" xmlns="http://www.w3.org/2000/svg" xmlns:xlink="http://www.w3.org/1999/xlink" preserveAspectRatio="xMidYMid meet" viewBox="-0.9996291845490006 1.602907320000007 89.797610284549 39.28077558" width="85.8" height="35.28"><defs><path d="M5.48 15.87C5.48 17.82 6.99 19.36 9.14 19.36C11.05 19.36 12.59 17.82 12.59 15.87C12.59 13.92 11.05 12.38 9.14 12.38C9.14 12.38 9.14 12.38 9.14 12.38C6.7 13.4 5.48 14.57 5.48 15.87ZM10.24 34.55C13.49 34.55 14.58 32.93 14.58 32.2C14.58 31.22 13.08 29.76 8.21 29.76C5.44 29.76 4.63 31.3 4.63 32.2C4.63 32.2 4.63 32.2 4.63 32.2C5.55 33.77 7.42 34.55 10.24 34.55ZM16.09 12.54C16.74 13.43 17.23 14.65 17.23 16.27C17.23 20.26 14.54 23.1 9.26 23.1C7.07 23.1 5.32 23.18 5.32 24.4C5.32 27.81 19.22 23.18 19.22 31.63C19.22 34.63 16.17 37.88 9.43 37.88C3.74 37.88 0 36.18 0 32.85C0 30.21 1.99 28.95 3.82 28.95C3.82 28.94 3.82 28.87 3.82 28.87C2.84 28.26 0.69 27.73 0.69 25.45C0.69 23.42 3.05 21.88 3.98 21.6C2.23 20.17 0.85 18.55 0.85 15.99C0.85 12.29 3.7 8.64 9.18 8.64C10.97 8.64 13.08 9.37 14.38 10.51C15.36 9.21 16.94 8.56 19.34 8.64C19.34 8.87 19.34 10 19.34 12.05C17.69 12.05 16.6 12.21 16.09 12.54Z" id="gbC3wI3GN"></path><path d="M28.97 12.38C26.54 12.38 24.99 14.08 24.91 17.01C25.45 17.01 28.16 17.01 33.04 17.01C31.95 13.92 30.6 12.38 28.97 12.38ZM29.3 26.51C31.66 26.51 32.75 25.45 34.01 23.99C34.38 24.22 37.3 26.04 37.67 26.27C35.72 29.27 32.87 30.57 28.81 30.57C23.33 30.57 19.87 26.31 19.87 19.61C19.87 12.9 23.33 8.64 29.06 8.64C34.58 8.6 37.67 13.27 37.67 18.35C37.67 18.48 37.67 19.18 37.67 20.42L24.91 20.42C26.27 24.48 27.73 26.51 29.3 26.51Z" id="bKofbnxg"></path><path d="M70.64 33.74C72.39 33.74 73.37 33.25 73.98 32.08C74.46 31.06 74.79 30.45 74.79 29.6C74.79 28.83 74.38 27.93 74.14 27.08C73.76 25.88 71.88 19.87 68.49 9.05L73.57 9.05L77.06 22.04L77.15 22.04L80.76 9.05L85.8 9.05C81.8 21.74 79.58 28.8 79.14 30.21C76.9 36.26 75.11 37.88 70.97 37.88C69.75 37.88 69.14 37.8 68.53 37.72C68.53 37.44 68.53 36.06 68.53 33.58C69.45 33.69 70.16 33.74 70.64 33.74Z" id="c1BFRNErtY"></path><path d="M41.81 2.6L47.35 2.6L47.35 9.1L51.91 9.1L51.91 13.17L47.35 13.17C47.35 20.33 47.35 24.31 47.35 25.11C47.35 26.24 47.98 26.57 49.36 26.57C50.21 26.57 51.11 26.33 51.91 26.16C51.91 26.58 51.91 29.89 51.91 30.3C50.39 30.47 49.05 30.63 47.53 30.63C43.42 30.63 41.81 28.76 41.81 25.76C41.81 24.92 41.81 20.72 41.81 13.17L38.6 13.17L38.6 9.1L41.81 9.1L41.81 2.6Z" id="a66lb2HyC"></path><path d="M56.3 2.6L61.85 2.6L61.85 9.1L66.4 9.1L66.4 13.17L61.85 13.17C61.85 20.33 61.85 24.31 61.85 25.11C61.85 26.24 62.47 26.57 63.86 26.57C64.71 26.57 65.6 26.33 66.4 26.16C66.4 26.58 66.4 29.89 66.4 30.3C64.88 30.47 63.54 30.63 62.02 30.63C57.91 30.63 56.3 28.76 56.3 25.76C56.3 24.92 56.3 20.72 56.3 13.17L53.09 13.17L53.09 9.1L56.3 9.1L56.3 2.6Z" id="g1ouExCV2b"></path></defs><g><g><use xlink:href="#gbC3wI3GN" opacity="1" fill="#ffa75f" fill-opacity="1"></use><g><use xlink:href="#gbC3wI3GN" opacity="1" fill-opacity="0" stroke="#000000" stroke-width="1" stroke-opacity="0"></use></g></g><g><use xlink:href="#bKofbnxg" opacity="1" fill="#ffa75f" fill-opacity="1"></use><g><use xlink:href="#bKofbnxg" opacity="1" fill-opacity="0" stroke="#000000" stroke-width="1" stroke-opacity="0"></use></g></g><g><use xlink:href="#c1BFRNErtY" opacity="1" fill="#ffa75f" fill-opacity="1"></use><g><use xlink:href="#c1BFRNErtY" opacity="1" fill-opacity="0" stroke="#000000" stroke-width="1" stroke-opacity="0"></use></g></g><g><use xlink:href="#a66lb2HyC" opacity="1" fill="#ffa75f" fill-opacity="1"></use><g><use xlink:href="#a66lb2HyC" opacity="1" fill-opacity="0" stroke="#000000" stroke-width="1" stroke-opacity="0"></use></g></g><g><use xlink:href="#g1ouExCV2b" opacity="1" fill="#ffa75f" fill-opacity="1"></use><g><use xlink:href="#g1ouExCV2b" opacity="1" fill-opacity="0" stroke="#000000" stroke-width="1" stroke-opacity="0"></use></g></g></g></svg>